<svg width="139" height="64" viewBox="0 0 139 64" fill="none" xmlns="http://www.w3.org/2000/svg">
<path d="M135.724 56.6161H93.3988C90.6939 56.6171 88.0494 57.4173 85.7981 58.9174L80.8378 62.2247C79.8108 62.9106 78.6034 63.2767 77.3686 63.2772H61.1815C59.9456 63.2767 58.7378 62.9106 57.7093 62.2247L52.752 58.9174C50.4991 57.4178 47.8541 56.6176 45.1482 56.6161H2.82295C2.26548 56.6181 1.7205 56.4547 1.25594 56.146C0.791879 55.8373 0.429726 55.3977 0.21543 54.8827C0.00163278 54.3677 -0.0548187 53.8007 0.0540778 53.2538C0.162475 52.7068 0.431223 52.2048 0.825848 51.8106L14.8086 37.8396C15.1717 37.4759 15.6273 37.2187 16.1263 37.0959C16.6253 36.9732 17.1483 36.9897 17.6384 37.1436L68.7458 53.1194C69.0949 53.2258 69.4686 53.2258 69.8178 53.1194L120.925 37.1436C121.415 36.9896 121.937 36.9731 122.436 37.0958C122.934 37.2186 123.389 37.4759 123.751 37.8396L137.735 51.8106C138.13 52.2053 138.399 52.7088 138.507 53.2573C138.615 53.8052 138.558 54.3732 138.342 54.8887C138.126 55.4042 137.762 55.8438 137.296 56.1515C136.83 56.4592 136.282 56.6211 135.724 56.6161Z" fill="#35563C"/>
<path d="M106.364 41.6929L69.3961 53.2491C69.3167 53.2726 69.2323 53.2726 69.1528 53.2491L32.1885 41.6929C33.5537 39.9019 35.0458 38.2113 36.6527 36.6341C45.3655 28.0911 57.0793 23.3059 69.2797 23.3059C81.4796 23.3059 93.1935 28.0911 101.906 36.6341C103.511 38.2115 105.001 39.9021 106.364 41.6929Z" fill="#FDCA40"/>
<path d="M72.8759 0H65.6778C63.9884 0 62.6182 1.37028 62.6182 3.06061V16.9216C62.6182 18.612 63.9884 19.9823 65.6778 19.9823H72.8759C74.5653 19.9823 75.9355 18.612 75.9355 16.9216V3.06061C75.9355 1.37028 74.5653 0 72.8759 0Z" fill="#FDCA40"/>
<path d="M38.6684 5.08858L32.7715 9.21746C31.3868 10.1867 31.0501 12.0951 32.0192 13.48L39.9651 24.8356C40.9337 26.2204 42.8414 26.5572 44.2261 25.5879L50.123 21.4591C51.5072 20.4898 51.8438 18.5814 50.8748 17.1966L42.9293 5.84097C41.9602 4.45614 40.0525 4.1193 38.6684 5.08858Z" fill="#FDCA40"/>
<path d="M95.6272 5.84051L87.6797 17.1948C86.7102 18.5794 87.0469 20.4878 88.431 21.4574L94.3269 25.5873C95.7111 26.5568 97.6188 26.2203 98.5884 24.8357L106.536 13.4814C107.505 12.0968 107.169 10.1883 105.785 9.2188L99.8886 5.08888C98.5045 4.11937 96.5963 4.45587 95.6272 5.84051Z" fill="#FDCA40"/>
</svg>
