<svg width="181" height="87" viewBox="0 0 181 87" fill="none" xmlns="http://www.w3.org/2000/svg">
<g clip-path="url(#clip0_183_1619)">
<path d="M129.831 33.953H104.449C102.826 33.9536 101.24 34.4335 99.8903 35.3331L96.9155 37.3165C96.2996 37.7279 95.5756 37.9474 94.835 37.9477H85.1275C84.3863 37.9474 83.662 37.7279 83.0452 37.3165L80.0722 35.3331C78.7212 34.4338 77.135 33.9539 75.5122 33.953H50.1293C49.795 33.9542 49.4682 33.8562 49.1896 33.6711C48.9113 33.4859 48.6941 33.2223 48.5656 32.9135C48.4374 32.6046 48.4035 32.2646 48.4688 31.9366C48.5338 31.6085 48.695 31.3075 48.9317 31.0711L57.3172 22.6926C57.535 22.4744 57.8082 22.3202 58.1075 22.2466C58.4068 22.173 58.7204 22.1828 59.0143 22.2751L89.6639 31.856C89.8733 31.9198 90.0973 31.9198 90.3067 31.856L120.956 22.2751C121.25 22.1828 121.563 22.1729 121.862 22.2465C122.161 22.3201 122.434 22.4744 122.651 22.6926L131.037 31.0711C131.274 31.3078 131.436 31.6097 131.5 31.9387C131.565 32.2673 131.531 32.6079 131.401 32.9171C131.272 33.2262 131.054 33.4898 130.774 33.6744C130.494 33.8589 130.166 33.956 129.831 33.953Z" fill="#FFFAEC"/>
<path d="M112.223 25.0039L90.0533 31.9342C90.0056 31.9483 89.955 31.9483 89.9074 31.9342L67.7395 25.0039C68.5582 23.9298 69.453 22.9159 70.4168 21.97C75.6419 16.8467 82.6668 13.9771 89.9834 13.9771C97.2998 13.9771 104.325 16.8467 109.55 21.97C110.512 22.9161 111.406 23.93 112.223 25.0039Z" fill="#FDCA41"/>
<path d="M92.1402 0H87.8234C86.8102 0 85.9885 0.821771 85.9885 1.83548V10.148C85.9885 11.1618 86.8102 11.9835 87.8234 11.9835H92.1402C93.1533 11.9835 93.9751 11.1618 93.9751 10.148V1.83548C93.9751 0.821771 93.1533 0 92.1402 0Z" fill="#FDCA41"/>
<path d="M71.6268 3.05164L68.0904 5.52776C67.26 6.10905 67.0581 7.25352 67.6392 8.08402L72.4045 14.8941C72.9853 15.7246 74.1294 15.9266 74.9598 15.3453L78.4962 12.8692C79.3263 12.2879 79.5283 11.1434 78.9471 10.3129L74.1821 3.50285C73.601 2.67236 72.4569 2.47035 71.6268 3.05164Z" fill="#FDCA41"/>
<path d="M105.786 3.50258L101.02 10.3118C100.438 11.1422 100.64 12.2867 101.47 12.8681L105.006 15.3449C105.836 15.9263 106.98 15.7245 107.562 14.8941L112.328 8.08489C112.909 7.25451 112.707 6.11 111.877 5.52857L108.342 3.05182C107.511 2.47039 106.367 2.6722 105.786 3.50258Z" fill="#FDCA41"/>
<path d="M180.72 76.4032L181 76.6033C180.653 77.3508 180.094 78.011 179.321 78.585C178.547 79.1587 177.541 79.4457 176.301 79.4457C174.795 79.4457 173.609 78.9586 172.742 77.9844C171.889 77.0105 171.463 75.6495 171.463 73.9015V59.4311H169.203V58.8706L174.282 53.7471H174.862V58.2903H180.92V59.4311H174.862V73.8215C174.862 74.9689 175.135 75.8697 175.681 76.5234C176.241 77.1773 177.034 77.5041 178.061 77.5041C178.501 77.5041 178.907 77.4373 179.28 77.304C179.654 77.1704 179.914 77.0506 180.06 76.9436C180.22 76.8235 180.44 76.6435 180.72 76.4032Z" fill="#FFFAEC"/>
<path d="M164.662 76.3745C164.662 77.2094 164.895 77.798 165.36 78.1401C165.825 78.4687 166.516 78.7219 167.433 78.8998V79.4954H158.34V78.8998C159.284 78.7219 159.989 78.4687 160.454 78.1401C160.933 77.798 161.173 77.2094 161.173 76.3745V64.4459C161.173 63.1458 160.824 62.1191 160.126 61.3663C159.441 60.6135 158.497 60.2372 157.293 60.2372C156.226 60.2372 155.227 60.5042 154.296 61.038C153.366 61.558 152.36 62.4409 151.279 63.6865V76.3745C151.279 77.2094 151.511 77.798 151.977 78.1401C152.442 78.4687 153.14 78.7219 154.07 78.8998V79.4954H144.977V78.8998C145.921 78.7219 146.626 78.4687 147.091 78.1401C147.557 77.798 147.789 77.2094 147.789 76.3745V62.2902C147.789 61.5784 147.611 61.0515 147.256 60.7094C146.913 60.3535 146.366 60.1552 145.613 60.1138H144.608V59.5186L150.704 57.7939H151.279V62.6802C152.538 61.0515 153.749 59.8334 154.912 59.0258C156.075 58.2047 157.362 57.7939 158.771 57.7939C160.632 57.7939 162.076 58.3619 163.102 59.4979C164.142 60.6204 164.662 62.2012 164.662 64.2407V76.3745Z" fill="#FFFAEC"/>
<path d="M135.415 76.5787C137.964 76.5787 139.959 75.4197 141.401 73.1019L141.861 73.3017C141.367 75.1 140.386 76.5853 138.918 77.7575C137.45 78.9162 135.696 79.4959 133.654 79.4959C131.745 79.4959 130.071 79.0361 128.63 78.117C127.202 77.1847 126.114 75.9391 125.367 74.3808C124.633 72.8089 124.266 71.0441 124.266 69.0859C124.266 65.7292 125.16 63.0118 126.948 60.934C128.75 58.8427 131.105 57.7969 134.014 57.7969C136.456 57.7969 138.364 58.6228 139.739 60.2746C141.127 61.9261 141.834 64.0908 141.861 66.7681H127.789C127.762 66.9281 127.749 67.1878 127.749 67.5476C127.655 70.3048 128.309 72.5024 129.71 74.1411C131.125 75.766 133.027 76.5787 135.415 76.5787ZM133.414 58.9559C131.986 58.9559 130.785 59.5685 129.81 60.7941C128.836 62.0196 128.202 63.6247 127.909 65.6094H138.118C138.091 64.4638 137.891 63.3982 137.517 62.4123C137.157 61.4136 136.616 60.5877 135.896 59.9349C135.175 59.2821 134.348 58.9559 133.414 58.9559Z" fill="#FFFAEC"/>
<path d="M119.523 76.3745C119.523 77.2094 119.756 77.798 120.221 78.1401C120.686 78.4688 121.384 78.7219 122.315 78.8999V79.4954H113.263V78.8999C114.179 78.7219 114.871 78.4688 115.336 78.1401C115.801 77.798 116.034 77.2094 116.034 76.3745V64.4459C116.034 63.1458 115.692 62.1192 115.007 61.3663C114.323 60.6135 113.379 60.2373 112.175 60.2373C111.094 60.2373 110.081 60.5108 109.137 61.0584C108.206 61.5922 107.214 62.4819 106.161 63.7276V76.3745C106.161 77.2094 106.393 77.798 106.858 78.1401C107.324 78.4688 108.015 78.7219 108.932 78.8999V79.4954H99.8998V78.8999C100.817 78.7219 101.508 78.4688 101.973 78.1401C102.438 77.798 102.671 77.2094 102.671 76.3745V64.4459C102.671 63.1458 102.329 62.1192 101.645 61.3663C100.96 60.6135 100.016 60.2373 98.8121 60.2373C97.813 60.2373 96.8688 60.4697 95.9794 60.9353C95.1034 61.4005 94.1799 62.1602 93.2083 63.2141V76.3745C93.2083 77.2094 93.4408 77.798 93.906 78.1401C94.3713 78.4688 95.0693 78.7219 95.9997 78.8999V79.4954H86.9066V78.8999C87.8508 78.7219 88.5554 78.4688 89.0207 78.1401C89.4862 77.798 89.7187 77.2094 89.7187 76.3745V62.2902C89.7187 61.5784 89.5476 61.0515 89.2055 60.7094C88.8634 60.3535 88.3092 60.1414 87.5429 60.0728H86.5372V59.4776L92.6335 57.7529H93.2083V62.1261C94.3302 60.6887 95.4524 59.6076 96.5746 58.882C97.7103 58.1568 98.9556 57.794 100.311 57.794C101.925 57.794 103.232 58.2319 104.231 59.1079C105.23 59.9703 105.846 61.2022 106.078 62.8037C107.31 61.1336 108.528 59.8814 109.732 59.0465C110.936 58.2116 112.257 57.794 113.694 57.794C115.541 57.794 116.971 58.362 117.984 59.4979C119.01 60.6204 119.523 62.2012 119.523 64.2407V76.3745Z" fill="#FFFAEC"/>
<path d="M79.5474 54.9404C78.7674 54.9404 78.1242 54.7007 77.6179 54.2217C77.1116 53.7427 76.8585 53.1403 76.8585 52.415C76.8585 51.6895 77.1116 51.0873 77.6179 50.6083C78.1242 50.129 78.7674 49.8896 79.5474 49.8896C80.2727 49.8896 80.8817 50.1359 81.3742 50.6287C81.867 51.1077 82.1133 51.7032 82.1133 52.415C82.1133 53.1268 81.867 53.7289 81.3742 54.2217C80.8817 54.7007 80.2727 54.9404 79.5474 54.9404ZM81.5591 76.3746C81.5591 77.2095 81.7918 77.7982 82.2571 78.1403C82.7223 78.4689 83.4203 78.722 84.3507 78.9V79.4955H75.2573V78.9C76.2015 78.722 76.9064 78.4689 77.3717 78.1403C77.8369 77.7982 78.0697 77.2095 78.0697 76.3746V62.2903C78.0697 61.5786 77.8986 61.0516 77.5565 60.7095C77.2144 60.3536 76.6602 60.1415 75.8939 60.0729H74.8879V59.4777L80.9845 57.7531H81.5591V76.3746Z" fill="#FFFAEC"/>
<path d="M71.3671 57.7939C71.9557 57.7939 72.5168 57.924 73.0503 58.184L72.8451 61.5511C72.202 61.1815 71.456 60.9966 70.6077 60.9966C69.5951 60.9966 68.6167 61.3322 67.6725 62.0029C66.7282 62.6733 65.9413 63.6386 65.3119 64.8976V76.3334C65.3119 77.2094 65.6129 77.8187 66.2151 78.1608C66.831 78.5029 67.9049 78.7494 69.4378 78.8998V79.4954H58.8049V78.8998C59.2839 78.8177 59.6809 78.7288 59.9954 78.6329C60.3102 78.5371 60.6182 78.4001 60.9193 78.2222C61.2338 78.0308 61.4597 77.7842 61.5966 77.4832C61.747 77.1683 61.8225 76.7852 61.8225 76.3334V62.2902C61.8225 61.5784 61.6445 61.0515 61.2886 60.7094C60.9465 60.3535 60.3992 60.1552 59.6464 60.1138H58.6407V59.5186L64.737 57.7939H65.3119V63.6041C66.0509 61.7291 66.9403 60.2918 67.9804 59.2927C69.034 58.2936 70.1631 57.7939 71.3671 57.7939Z" fill="#FFFAEC"/>
<path d="M51.6511 54.9404C50.8711 54.9404 50.2279 54.7007 49.7216 54.2217C49.215 53.7427 48.9619 53.1403 48.9619 52.415C48.9619 51.6895 49.215 51.0873 49.7216 50.6083C50.2279 50.129 50.8711 49.8896 51.6511 49.8896C52.3764 49.8896 52.9851 50.1359 53.4779 50.6287C53.9704 51.1077 54.217 51.7032 54.217 52.415C54.217 53.1268 53.9704 53.7289 53.4779 54.2217C52.9851 54.7007 52.3764 54.9404 51.6511 54.9404ZM53.6624 76.3746C53.6624 77.2095 53.8952 77.7982 54.3604 78.1403C54.8257 78.4689 55.5237 78.722 56.4541 78.9V79.4955H47.361V78.9C48.3052 78.722 49.0098 78.4689 49.4751 78.1403C49.9403 77.7982 50.1731 77.2095 50.1731 76.3746V62.2903C50.1731 61.5786 50.002 61.0516 49.6599 60.7095C49.3178 60.3536 48.7636 60.1415 47.9973 60.0729H46.9913V59.4777L53.0879 57.7531H53.6624V76.3746Z" fill="#FFFAEC"/>
<path d="M35.2504 57.7969C36.8899 57.7969 38.3428 58.257 39.6091 59.177C40.8754 60.097 41.8352 61.33 42.4883 62.8767C43.1548 64.4099 43.4879 66.1165 43.4879 67.9963C43.4879 69.8363 43.2348 71.5028 42.7282 72.9961C42.2216 74.476 41.5284 75.6893 40.6489 76.6359C39.7822 77.5826 38.7892 78.309 37.6697 78.8159C36.5634 79.309 35.3903 79.5558 34.1506 79.5558C33.0308 79.5558 31.9844 79.3225 31.0114 78.8557C30.0384 78.3758 29.2653 77.7225 28.6921 76.8959V83.9355C28.6921 84.7887 28.9853 85.3822 29.5718 85.7153C30.1717 86.0487 31.2181 86.2887 32.7109 86.4354V86.9953H22.3538V86.4354C22.8203 86.3555 23.2069 86.2686 23.5135 86.1754C23.8201 86.0819 24.12 85.942 24.4132 85.7554C24.7198 85.582 24.9398 85.342 25.0731 85.0356C25.2197 84.7423 25.293 84.3756 25.293 83.9355V62.1766C25.293 61.4834 25.1197 60.9702 24.7731 60.6368C24.4399 60.2902 23.9067 60.097 23.1736 60.0568H22.1938V59.4769L28.1322 57.7969H28.6921V62.7167C29.2519 61.2234 30.1316 60.0302 31.3314 59.1369C32.5443 58.2435 33.8508 57.7969 35.2504 57.7969ZM34.2306 78.1559C35.8435 78.1559 37.1832 77.3225 38.2493 75.656C39.329 73.976 39.8691 71.9429 39.8691 69.5562C39.8691 68.4097 39.749 67.2965 39.509 66.2166C39.2826 65.1366 38.936 64.1367 38.4692 63.2167C38.0028 62.2967 37.3698 61.5634 36.57 61.017C35.7833 60.4568 34.8771 60.177 33.8508 60.177C32.7175 60.177 31.678 60.5436 30.7316 61.2767C29.7851 61.9968 29.1053 62.9567 28.6921 64.1567V71.8563C28.6921 72.6295 28.8054 73.3829 29.032 74.1159C29.2586 74.8493 29.5852 75.5227 30.0118 76.1359C30.4515 76.736 31.0381 77.2225 31.7712 77.5957C32.5042 77.9693 33.3241 78.1559 34.2306 78.1559Z" fill="#FFFAEC"/>
<path d="M10.5709 79.4958C7.94543 79.4958 5.65854 78.8868 3.71017 77.6691C1.77563 76.4513 0.538908 74.8049 0 72.7292L3.60652 71.6705C4.00725 73.6357 4.89853 75.2339 6.28036 76.4654C7.67596 77.6828 9.27887 78.2919 11.0891 78.2919C12.844 78.2919 14.2603 77.8006 15.3381 76.818C16.4298 75.8357 16.9756 74.5556 16.9756 72.9781C16.9756 72.0512 16.789 71.2277 16.4159 70.5082C16.0567 69.7748 15.5661 69.1661 14.9443 68.6817C14.3363 68.1835 13.6316 67.7338 12.8302 67.3324C12.0425 66.9313 11.2065 66.5646 10.3222 66.2324C9.43779 65.8867 8.55343 65.5476 7.66907 65.2154C6.78471 64.8694 5.94179 64.4682 5.14035 64.0117C4.35272 63.5548 3.64798 63.0498 3.02616 62.4965C2.41817 61.9291 1.92763 61.2233 1.55454 60.3791C1.19527 59.5352 1.01563 58.5805 1.01563 57.5149C1.01563 55.2316 1.87927 53.3913 3.60652 51.9938C5.33381 50.5961 7.6138 49.8975 10.4465 49.8975C12.768 49.8975 14.8545 50.4439 16.7061 51.537C18.5578 52.6301 19.7945 54.1109 20.4163 55.979L16.8098 57.079C16.3538 55.2801 15.4763 53.8341 14.1774 52.741C12.8785 51.6478 11.4621 51.1011 9.92834 51.1011C8.27016 51.1011 6.92288 51.5439 5.88651 52.4297C4.85015 53.3153 4.33199 54.4707 4.33199 55.896C4.33199 56.7262 4.51853 57.4733 4.89161 58.1374C5.2647 58.8019 5.76216 59.3621 6.38398 59.8189C7.01961 60.2755 7.74508 60.6975 8.56032 61.0849C9.3756 61.4725 10.2323 61.8392 11.1305 62.1849C12.0287 62.5171 12.9269 62.8631 13.8251 63.2229C14.737 63.5827 15.6007 64.0048 16.4159 64.4889C17.2312 64.9733 17.9498 65.5128 18.5716 66.1081C19.2072 66.703 19.7116 67.4433 20.0847 68.3288C20.4578 69.2005 20.6443 70.1831 20.6443 71.2763C20.6443 73.7669 19.7323 75.7596 17.9083 77.2542C16.0843 78.7484 13.6385 79.4958 10.5709 79.4958Z" fill="#FFFAEC"/>
</g>
<defs>
<clipPath id="clip0_183_1619">
<rect width="181" height="86.995" fill="white"/>
</clipPath>
</defs>
</svg>
