<svg width="137" height="66" viewBox="0 0 137 66" fill="none" xmlns="http://www.w3.org/2000/svg">
<g clip-path="url(#clip0_164_488)">
<path d="M98.2702 25.6993H79.058C77.8302 25.6997 76.6298 26.063 75.6079 26.7439L73.3563 28.2452C72.8901 28.5565 72.342 28.7227 71.7815 28.7229H64.4338C63.8728 28.7227 63.3246 28.5565 62.8577 28.2452L60.6075 26.7439C59.5848 26.0632 58.3842 25.7 57.1559 25.6993H37.9435C37.6905 25.7002 37.4431 25.626 37.2322 25.4859C37.0216 25.3458 36.8572 25.1462 36.7599 24.9125C36.6629 24.6787 36.6372 24.4213 36.6867 24.173C36.7359 23.9248 36.8579 23.6969 37.037 23.518L43.3841 17.1762C43.5489 17.0111 43.7557 16.8943 43.9822 16.8386C44.2087 16.7829 44.4461 16.7904 44.6686 16.8603L67.8674 24.112C68.0259 24.1603 68.1955 24.1603 68.354 24.112L91.5529 16.8603C91.7751 16.7903 92.0123 16.7829 92.2385 16.8386C92.4648 16.8943 92.6714 17.0111 92.8358 17.1762L99.1831 23.518C99.3625 23.6971 99.4847 23.9257 99.5337 24.1746C99.5829 24.4234 99.5568 24.6812 99.4588 24.9152C99.3609 25.1492 99.1956 25.3487 98.984 25.4884C98.7722 25.6281 98.5237 25.7015 98.2702 25.6993Z" fill="#35563C"/>
<path d="M84.9424 18.9255L68.1619 24.1711C68.1258 24.1818 68.0875 24.1818 68.0514 24.1711L51.2725 18.9255C51.8922 18.1125 52.5695 17.3451 53.2989 16.6291C57.2538 12.7513 62.571 10.5792 68.109 10.5792C73.6469 10.5792 78.9641 12.7513 82.919 16.6291C83.6475 17.3452 84.3239 18.1126 84.9424 18.9255Z" fill="#FDCA40"/>
<path d="M69.7416 0H66.4741C65.7073 0 65.0853 0.622003 65.0853 1.38928V7.68112C65.0853 8.4484 65.7073 9.07041 66.4741 9.07041H69.7416C70.5084 9.07041 71.1304 8.4484 71.1304 7.68112V1.38928C71.1304 0.622003 70.5084 0 69.7416 0Z" fill="#FDCA40"/>
<path d="M54.2147 2.30973L51.538 4.18393C50.9094 4.6239 50.7566 5.49017 51.1965 6.11877L54.8033 11.2734C55.243 11.902 56.109 12.0549 56.7375 11.6149L59.4142 9.74068C60.0425 9.3007 60.1954 8.43444 59.7555 7.80586L56.1489 2.65126C55.709 2.02265 54.843 1.86975 54.2147 2.30973Z" fill="#FDCA40"/>
<path d="M80.0698 2.65084L76.4623 7.8048C76.0222 8.43332 76.175 9.2996 76.8033 9.73969L79.4796 11.6144C80.1079 12.0545 80.9739 11.9017 81.414 11.2732L85.0215 6.11922C85.4614 5.4907 85.3088 4.62441 84.6805 4.18432L82.0042 2.30965C81.3759 1.86957 80.5097 2.02232 80.0698 2.65084Z" fill="#FDCA40"/>
<path d="M136.788 57.8301L137 57.9816C136.737 58.5473 136.314 59.0471 135.729 59.4815C135.143 59.9157 134.382 60.1329 133.443 60.1329C132.303 60.1329 131.405 59.7642 130.75 59.0269C130.104 58.2897 129.781 57.2596 129.781 55.9365V44.9838H128.071V44.5596L131.915 40.6815H132.354V44.1204H136.939V44.9838H132.354V55.876C132.354 56.7444 132.561 57.4263 132.974 57.921C133.398 58.416 133.998 58.6634 134.775 58.6634C135.108 58.6634 135.416 58.6128 135.698 58.5119C135.981 58.4108 136.178 58.3201 136.289 58.2392C136.41 58.1482 136.576 58.012 136.788 57.8301Z" fill="#35563C"/>
<path d="M124.634 57.8084C124.634 58.4404 124.81 58.8859 125.162 59.1449C125.514 59.3936 126.037 59.5852 126.731 59.7199V60.1707H119.849V59.7199C120.563 59.5852 121.097 59.3936 121.449 59.1449C121.811 58.8859 121.993 58.4404 121.993 57.8084V48.7796C121.993 47.7956 121.728 47.0185 121.2 46.4487C120.682 45.8789 119.968 45.5941 119.056 45.5941C118.248 45.5941 117.492 45.7961 116.788 46.2002C116.083 46.5938 115.322 47.262 114.504 48.2048V57.8084C114.504 58.4404 114.68 58.8859 115.032 59.1449C115.384 59.3936 115.912 59.5852 116.617 59.7199V60.1707H109.734V59.7199C110.449 59.5852 110.982 59.3936 111.334 59.1449C111.687 58.8859 111.863 58.4404 111.863 57.8084V47.148C111.863 46.6092 111.728 46.2104 111.459 45.9514C111.2 45.6821 110.785 45.532 110.216 45.5007H109.454V45.0501L114.069 43.7447H114.504V47.4432C115.457 46.2104 116.373 45.2884 117.254 44.6771C118.134 44.0556 119.108 43.7447 120.175 43.7447C121.583 43.7447 122.676 44.1746 123.453 45.0345C124.24 45.8841 124.634 47.0806 124.634 48.6243V57.8084Z" fill="#35563C"/>
<path d="M102.497 57.9625C104.426 57.9625 105.936 57.0852 107.027 55.3309L107.376 55.4821C107.002 56.8433 106.259 57.9675 105.148 58.8548C104.037 59.7318 102.709 60.1706 101.163 60.1706C99.719 60.1706 98.4515 59.8225 97.3606 59.1269C96.2797 58.4212 95.4566 57.4784 94.8909 56.2989C94.3354 55.1092 94.0576 53.7734 94.0576 52.2912C94.0576 49.7505 94.7345 47.6937 96.0879 46.1209C97.4516 44.538 99.2342 43.7465 101.436 43.7465C103.285 43.7465 104.729 44.3716 105.77 45.6219C106.82 46.8719 107.355 48.5104 107.376 50.5368H96.7242C96.704 50.6579 96.694 50.8545 96.694 51.1268C96.6232 53.2138 97.1182 54.8772 98.1787 56.1175C99.2494 57.3474 100.689 57.9625 102.497 57.9625ZM100.982 44.6237C99.9009 44.6237 98.9918 45.0874 98.2545 46.015C97.5171 46.9427 97.0373 48.1576 96.8151 49.6598H104.542C104.522 48.7927 104.37 47.9861 104.088 47.2399C103.815 46.484 103.406 45.8588 102.86 45.3647C102.315 44.8707 101.689 44.6237 100.982 44.6237Z" fill="#35563C"/>
<path d="M90.4677 57.8084C90.4677 58.4404 90.6439 58.8859 90.996 59.1448C91.3482 59.3936 91.8765 59.5852 92.5808 59.7199V60.1706H85.7292V59.7199C86.423 59.5852 86.9461 59.3936 87.2983 59.1448C87.6504 58.8859 87.8266 58.4404 87.8266 57.8084V48.7796C87.8266 47.7955 87.5676 47.0185 87.0498 46.4487C86.5319 45.8788 85.8172 45.5941 84.9056 45.5941C84.0873 45.5941 83.3209 45.8011 82.6062 46.2156C81.9019 46.6196 81.151 47.2931 80.3535 48.2359V57.8084C80.3535 58.4404 80.5294 58.8859 80.8816 59.1448C81.2339 59.3936 81.7568 59.5852 82.4509 59.7199V60.1706H75.6147V59.7199C76.3088 59.5852 76.8319 59.3936 77.184 59.1448C77.5362 58.8859 77.7121 58.4404 77.7121 57.8084V48.7796C77.7121 47.7955 77.4532 47.0185 76.9353 46.4487C76.4174 45.8788 75.7027 45.5941 74.7914 45.5941C74.0352 45.5941 73.3205 45.77 72.6473 46.1224C71.9843 46.4745 71.2852 47.0495 70.5499 47.8472V57.8084C70.5499 58.4404 70.7259 58.8859 71.078 59.1448C71.4301 59.3936 71.9584 59.5852 72.6627 59.7199V60.1706H65.7801V59.7199C66.4948 59.5852 67.0281 59.3936 67.3802 59.1448C67.7326 58.8859 67.9085 58.4404 67.9085 57.8084V47.1479C67.9085 46.6092 67.7791 46.2103 67.5201 45.9514C67.2612 45.682 66.8417 45.5215 66.2617 45.4696H65.5005V45.019L70.1148 43.7136H70.5499V47.0237C71.3991 45.9358 72.2485 45.1174 73.0978 44.5683C73.9574 44.0193 74.9 43.7447 75.9256 43.7447C77.1478 43.7447 78.1368 44.0762 78.893 44.7392C79.6492 45.392 80.1152 46.3244 80.2914 47.5366C81.2235 46.2725 82.1452 45.3247 83.0568 44.6927C83.9683 44.0608 84.9678 43.7447 86.0555 43.7447C87.4538 43.7447 88.5361 44.1746 89.3025 45.0344C90.0793 45.8841 90.4677 47.0806 90.4677 48.6243V57.8084Z" fill="#35563C"/>
<path d="M60.21 41.5849C59.6196 41.5849 59.1328 41.4035 58.7496 41.0409C58.3664 40.6784 58.1748 40.2224 58.1748 39.6734C58.1748 39.1243 58.3664 38.6685 58.7496 38.3059C59.1328 37.9431 59.6196 37.762 60.21 37.762C60.759 37.762 61.22 37.9483 61.5927 38.3213C61.9657 38.6839 62.1521 39.1347 62.1521 39.6734C62.1521 40.2122 61.9657 40.6679 61.5927 41.0409C61.22 41.4035 60.759 41.5849 60.21 41.5849ZM61.7326 57.8086C61.7326 58.4405 61.9088 58.8861 62.261 59.145C62.6131 59.3938 63.1414 59.5854 63.8457 59.7201V60.1708H56.9628V59.7201C57.6775 59.5854 58.211 59.3938 58.5632 59.145C58.9153 58.8861 59.0915 58.4405 59.0915 57.8086V47.1481C59.0915 46.6094 58.962 46.2105 58.7031 45.9516C58.4441 45.6822 58.0247 45.5217 57.4446 45.4697H56.6832V45.0192L61.2977 43.7138H61.7326V57.8086Z" fill="#35563C"/>
<path d="M54.0185 43.7447C54.4641 43.7447 54.8887 43.8431 55.2926 44.04L55.1373 46.5886C54.6504 46.3088 54.0858 46.1689 53.4437 46.1689C52.6773 46.1689 51.9367 46.4228 51.222 46.9305C50.5073 47.438 49.9117 48.1686 49.4353 49.1216V57.7774C49.4353 58.4404 49.6632 58.9016 50.1189 59.1605C50.5851 59.4195 51.398 59.6061 52.5582 59.7199V60.1707H44.5101V59.7199C44.8727 59.6578 45.1731 59.5904 45.4112 59.5179C45.6495 59.4453 45.8826 59.3417 46.1105 59.207C46.3486 59.0621 46.5195 58.8755 46.6232 58.6476C46.737 58.4093 46.7941 58.1193 46.7941 57.7774V47.148C46.7941 46.6092 46.6594 46.2104 46.3901 45.9514C46.1311 45.6821 45.7169 45.532 45.147 45.5007H44.3859V45.0501L49.0001 43.7447H49.4353V48.1425C49.9947 46.7233 50.6679 45.6353 51.4551 44.8791C52.2526 44.1229 53.1072 43.7447 54.0185 43.7447Z" fill="#35563C"/>
<path d="M39.0952 41.5849C38.5047 41.5849 38.0179 41.4035 37.6347 41.0409C37.2513 40.6784 37.0597 40.2224 37.0597 39.6734C37.0597 39.1243 37.2513 38.6685 37.6347 38.3059C38.0179 37.9431 38.5047 37.762 39.0952 37.762C39.6441 37.762 40.1049 37.9483 40.4778 38.3213C40.8506 38.6839 41.0372 39.1347 41.0372 39.6734C41.0372 40.2122 40.8506 40.6679 40.4778 41.0409C40.1049 41.4035 39.6441 41.5849 39.0952 41.5849ZM40.6175 57.8086C40.6175 58.4405 40.7937 58.8861 41.1458 59.145C41.498 59.3938 42.0263 59.5854 42.7306 59.7201V60.1708H35.8479V59.7201C36.5626 59.5854 37.0959 59.3938 37.4481 59.145C37.8002 58.8861 37.9764 58.4405 37.9764 57.8086V47.1481C37.9764 46.6094 37.8469 46.2105 37.588 45.9516C37.329 45.6822 36.9095 45.5217 36.3295 45.4697H35.5681V45.0192L40.1826 43.7138H40.6175V57.8086Z" fill="#35563C"/>
<path d="M26.6813 43.7465C27.9222 43.7465 29.022 44.0947 29.9804 44.7911C30.9389 45.4874 31.6654 46.4207 32.1597 47.5914C32.6642 48.7519 32.9163 50.0436 32.9163 51.4665C32.9163 52.8592 32.7247 54.1205 32.3413 55.2509C31.9579 56.371 31.4332 57.2893 30.7674 58.0058C30.1115 58.7224 29.3598 59.2722 28.5125 59.6559C27.6751 60.0291 26.7871 60.2159 25.8489 60.2159C25.0013 60.2159 24.2093 60.0393 23.4728 59.686C22.7363 59.3228 22.1511 58.8282 21.7172 58.2027V63.531C21.7172 64.1767 21.9392 64.6259 22.3831 64.8781C22.8372 65.1304 23.6293 65.312 24.7591 65.4232V65.8469H16.9198V65.4232C17.2729 65.3626 17.5655 65.2969 17.7975 65.2263C18.0296 65.1556 18.2566 65.0497 18.4786 64.9084C18.7106 64.7772 18.8771 64.5955 18.978 64.3636C19.089 64.1416 19.1445 63.864 19.1445 63.531V47.0615C19.1445 46.5368 19.0133 46.1484 18.751 45.896C18.4988 45.6337 18.0952 45.4874 17.5403 45.457H16.7987V45.018L21.2935 43.7465H21.7172V47.4703C22.141 46.34 22.8068 45.4368 23.715 44.7607C24.6331 44.0845 25.6219 43.7465 26.6813 43.7465ZM25.9094 59.1563C27.1302 59.1563 28.1442 58.5255 28.9512 57.2641C29.7684 55.9926 30.1772 54.4536 30.1772 52.6471C30.1772 51.7794 30.0863 50.9368 29.9047 50.1194C29.7333 49.302 29.4709 48.5451 29.1176 47.8487C28.7646 47.1524 28.2855 46.5973 27.6801 46.1837C27.0846 45.7597 26.3987 45.548 25.6219 45.548C24.7641 45.548 23.9773 45.8255 23.261 46.3803C22.5446 46.9254 22.03 47.6519 21.7172 48.5603V54.3881C21.7172 54.9733 21.803 55.5436 21.9745 56.0984C22.146 56.6535 22.3932 57.1632 22.7161 57.6274C23.049 58.0816 23.493 58.4498 24.0478 58.7323C24.6027 59.0151 25.2233 59.1563 25.9094 59.1563Z" fill="#35563C"/>
<path d="M8.00117 60.1707C6.01394 60.1707 4.28298 59.7098 2.80825 58.788C1.34399 57.8663 0.407903 56.6201 0 55.049L2.7298 54.2477C3.03311 55.7351 3.70773 56.9448 4.75364 57.877C5.80998 58.7985 7.02323 59.2594 8.39337 59.2594C9.72167 59.2594 10.7937 58.8876 11.6095 58.1438C12.4358 57.4003 12.8489 56.4315 12.8489 55.2374C12.8489 54.5359 12.7077 53.9125 12.4253 53.3679C12.1534 52.8128 11.7821 52.3521 11.3114 51.9854C10.8513 51.6083 10.3178 51.268 9.71122 50.9642C9.11506 50.6605 8.48228 50.383 7.8129 50.1315C7.14352 49.8699 6.47415 49.6132 5.80477 49.3617C5.13539 49.0999 4.49737 48.7962 3.89076 48.4507C3.2946 48.1049 2.76118 47.7226 2.29052 47.3038C1.83033 46.8743 1.45903 46.3401 1.17664 45.7012C0.904706 45.0624 0.76874 44.3398 0.76874 43.5332C0.76874 41.805 1.42243 40.4121 2.7298 39.3543C4.03719 38.2963 5.76293 37.7675 7.90702 37.7675C9.66415 37.7675 11.2435 38.1811 12.645 39.0085C14.0465 39.8359 14.9826 40.9567 15.4532 42.3707L12.7234 43.2033C12.3783 41.8417 11.7141 40.7472 10.731 39.9198C9.74782 39.0924 8.67576 38.6786 7.51482 38.6786C6.25974 38.6786 5.23997 39.0137 4.45554 39.6842C3.67111 40.3545 3.27891 41.229 3.27891 42.3079C3.27891 42.9362 3.4201 43.5017 3.70249 44.0044C3.98488 44.5073 4.36142 44.9314 4.83207 45.2771C5.31318 45.6227 5.86229 45.9422 6.47936 46.2354C7.09645 46.5288 7.74492 46.8063 8.42475 47.068C9.10458 47.3194 9.78444 47.5813 10.4643 47.8537C11.1545 48.126 11.8083 48.4455 12.4253 48.8119C13.0424 49.1785 13.5863 49.5869 14.0569 50.0374C14.5381 50.4878 14.9198 51.0481 15.2022 51.7183C15.4846 52.3781 15.6258 53.1219 15.6258 53.9493C15.6258 55.8344 14.9355 57.3428 13.5549 58.474C12.1743 59.605 10.3231 60.1707 8.00117 60.1707Z" fill="#35563C"/>
</g>
<defs>
<clipPath id="clip0_164_488">
<rect width="137" height="65.8471" fill="white"/>
</clipPath>
</defs>
</svg>
